HIERARCHY
ROOT Hips
{
	OFFSET 0.000000 0.000000 0.000000
	CHANNELS 6 Xposition Yposition Zposition Xrotation Yrotation Zrotation
	JOINT LeftUpLeg_virtual
	{
		OFFSET 0.000000 0.000000 0.000000
		CHANNELS 3 Xrotation Yrotation Zrotation
		JOINT LeftUpLeg
		{
			OFFSET 10.205400 -3.823500 0.155100
			CHANNELS 3 Xrotation Yrotation Zrotation
			JOINT LeftLeg
			{
				OFFSET 0.708757 -12.982077 0.567790
				CHANNELS 3 Xrotation Yrotation Zrotation
				JOINT LeftFoot
				{
					OFFSET -0.708756 -10.717838 -2.184338
					CHANNELS 3 Xrotation Yrotation Zrotation
					JOINT LeftToeBase
					{
						OFFSET 0.108149 -7.191104 7.560241
						CHANNELS 3 Xrotation Yrotation Zrotation
						JOINT LeftToe_End
						{
							OFFSET 0.070230 0.081724 4.490308
							CHANNELS 3 Xrotation Yrotation Zrotation
							End Site
							{
								OFFSET 0 0 0
							}
						}
					}
				}
			}
		}
	}
	JOINT RightUpLeg_virtual
	{
		OFFSET 0.000000 0.000000 0.000000
		CHANNELS 3 Xrotation Yrotation Zrotation
		JOINT RightUpLeg
		{
			OFFSET -10.205400 -3.823500 0.005500
			CHANNELS 3 Xrotation Yrotation Zrotation
			JOINT RightLeg
			{
				OFFSET -0.708756 -12.982134 0.610632
				CHANNELS 3 Xrotation Yrotation Zrotation
				JOINT RightFoot
				{
					OFFSET 0.708754 -10.717769 -1.945823
					CHANNELS 3 Xrotation Yrotation Zrotation
					JOINT RightToeBase
					{
						OFFSET -0.108140 -7.191069 7.372968
						CHANNELS 3 Xrotation Yrotation Zrotation
						JOINT RightToe_End
						{
							OFFSET -0.070227 0.081735 4.479403
							CHANNELS 3 Xrotation Yrotation Zrotation
							End Site
							{
								OFFSET 0 0 0
							}
						}
					}
				}
			}
		}
	}
	JOINT Spine_virtual
	{
		OFFSET 0.000000 0.000000 0.000000
		CHANNELS 3 Xrotation Yrotation Zrotation
		JOINT Spine
		{
			OFFSET 0.000000 6.876099 0.125700
			CHANNELS 3 Xrotation Yrotation Zrotation
			JOINT Spine1
			{
				OFFSET 0.000000 5.730043 0.104720
				CHANNELS 3 Xrotation Yrotation Zrotation
				JOINT Spine1_split
				{
					OFFSET 0.000000 5.730043 0.104720
					CHANNELS 3 Xrotation Yrotation Zrotation
					JOINT Spine2
					{
						OFFSET 0.000000 5.730043 0.104720
						CHANNELS 3 Xrotation Yrotation Zrotation
						JOINT Neck_virtual
						{
							OFFSET 0.000000 0.000000 0.000000
							CHANNELS 3 Xrotation Yrotation Zrotation
							JOINT Neck
							{
								OFFSET 0.000000 10.314075 0.188496
								CHANNELS 3 Xrotation Yrotation Zrotation
								JOINT Head
								{
									OFFSET 0.000000 7.643700 -2.377400
									CHANNELS 3 Xrotation Yrotation Zrotation
									JOINT HeadTop_End
									{
										OFFSET 0.000000 43.788605 -13.619600
										CHANNELS 3 Xrotation Yrotation Zrotation
										End Site
										{
											OFFSET 0 0 0
										}
									}
								}
							}
						}
						JOINT LeftShoulder_virtual
						{
							OFFSET 0.000000 0.000000 0.000000
							CHANNELS 3 Xrotation Yrotation Zrotation
							JOINT LeftShoulder
							{
								OFFSET 2.196100 4.412489 0.087492
								CHANNELS 3 Xrotation Yrotation Zrotation
								JOINT LeftShoulder_split
								{
									OFFSET 2.196100 4.412489 0.087492
									CHANNELS 3 Xrotation Yrotation Zrotation
									JOINT LeftArm
									{
										OFFSET 8.771219 -2.981674 -0.026999
										CHANNELS 3 Xrotation Yrotation Zrotation
										JOINT LeftForeArm
										{
											OFFSET 8.512804 0.000000 -0.000000
											CHANNELS 3 Xrotation Yrotation Zrotation
											JOINT LeftHand
											{
												OFFSET 18.484802 0.000000 -0.000000
												CHANNELS 3 Xrotation Yrotation Zrotation
												End Site
												{
													OFFSET 0 0 0
												}
											}
										}
									}
								}
							}
						}
						JOINT RightShoulder_virtual
						{
							OFFSET 0.000000 0.000000 0.000000
							CHANNELS 3 Xrotation Yrotation Zrotation
							JOINT RightShoulder
							{
								OFFSET -2.196100 4.412496 0.070690
								CHANNELS 3 Xrotation Yrotation Zrotation
								JOINT RightShoulder_split
								{
									OFFSET -2.196100 4.412496 0.070690
									CHANNELS 3 Xrotation Yrotation Zrotation
									JOINT RightArm
									{
										OFFSET -8.771282 -2.981682 -0.094208
										CHANNELS 3 Xrotation Yrotation Zrotation
										JOINT RightForeArm
										{
											OFFSET -8.494598 0.000000 0.000000
											CHANNELS 3 Xrotation Yrotation Zrotation
											JOINT RightHand
											{
												OFFSET -18.483803 0.000000 0.000001
												CHANNELS 3 Xrotation Yrotation Zrotation
												End Site
												{
													OFFSET 0 0 0
												}
											}
										}
									}
								}
							}
						}
					}
				}
			}
		}
	}
}
MOTION
Frames: 8
Frame Time: 0.03333333
0.321761 20.622032 7.168423 0.000000 0.000000 0.000000 0.146431 0.062094 0.899403 -89.273906 -11.582080 17.430127 89.689461 -1.232364 -0.776212 1.818752 -5.709068 -11.318793 -0.103107 0.000002 0.000005 0.000000 0.000000 0.000000 0.146431 0.062094 0.899403 -90.866467 13.468835 -13.928923 91.654916 2.350275 -0.975030 1.985586 -1.504991 12.899035 -0.195509 0.000010 0.000004 0.000000 0.000000 0.000000 0.146431 0.062094 0.899403 10.430034 0.129114 -1.531437 -0.199271 0.216427 -0.355483 0.000000 0.000000 0.000000 0.000000 0.000000 0.000000 -0.199593 0.248527 -0.300892 -1.001769 -1.276608 0.469464 -8.883414 -4.319392 -5.320496 0.000000 0.000000 0.000000 -0.199593 0.248527 -0.300892 0.823514 -15.262034 -7.868725 0.000000 0.000000 0.000000 4.746743 -21.216407 -54.862210 -0.000013 -62.197567 -0.000027 0.000000 0.000000 0.000000 -0.199593 0.248527 -0.300892 3.171096 -4.378723 8.782883 0.000000 0.000000 0.000000 -3.950246 37.253409 63.733663 0.000013 55.137938 -0.000020 0.000000 0.000000 0.000000 
0.318791 20.628983 7.198113 0.000000 0.000000 0.000000 0.271488 0.082972 0.900049 -89.647797 -11.570045 17.264988 89.787843 -1.104981 -0.685939 2.188436 -5.637197 -11.107391 -0.135798 0.000002 0.000000 0.000000 0.000000 0.000000 0.271488 0.082972 0.900049 -91.188763 13.523798 -13.712719 92.078422 2.300619 -1.119800 2.059858 -1.686852 12.768922 -0.249307 -0.000008 0.012446 0.000000 0.000000 0.000000 0.271488 0.082972 0.900049 10.537724 0.123282 -1.532023 0.117322 0.217353 -0.407599 0.000000 0.000000 0.000000 0.000000 0.000000 0.000000 -0.022414 0.256674 -0.330249 -0.608622 -1.274648 0.376579 -10.758935 -4.494757 -5.054917 0.000000 0.000000 0.000000 -0.022414 0.256674 -0.330249 1.483752 -14.226186 -5.573876 0.000000 0.000000 0.000000 1.069116 -20.426968 -59.574201 0.000007 -61.355098 0.000008 0.000000 0.000000 0.000000 -0.022414 0.256674 -0.330249 3.198767 -5.102189 7.675790 0.000000 0.000000 0.000000 -5.994470 37.040171 66.362371 -0.000000 54.665750 -0.000005 0.000000 0.000000 0.000000 
0.312454 20.652794 7.229925 0.000000 0.000000 0.000000 0.322919 0.099509 0.903815 -90.110255 -11.631496 17.085650 90.052479 -1.006912 -0.505348 2.540293 -5.347868 -11.236903 -0.194354 0.000006 0.000002 0.000000 0.000000 0.000000 0.322919 0.099509 0.903815 -91.598922 13.512768 -13.338247 92.461883 2.300751 -1.414495 2.617450 -2.014240 12.716037 -0.443447 -0.002533 0.429581 0.000000 0.000000 0.000000 0.322919 0.099509 0.903815 10.754824 0.115955 -1.534619 0.561808 0.226205 -0.458109 0.000000 0.000000 0.000000 0.000000 0.000000 0.000000 0.311174 0.271968 -0.384474 -0.128487 -1.267130 0.274483 -12.595951 -4.648124 -4.744550 0.000000 0.000000 0.000000 0.311174 0.271968 -0.384474 2.105334 -13.032945 -2.969772 0.000000 0.000000 0.000000 -2.448520 -19.928793 -64.159409 -0.000001 -60.572850 0.000012 0.000000 0.000000 0.000000 0.311174 0.271968 -0.384474 3.198650 -5.900645 6.470175 0.000000 0.000000 0.000000 -8.231924 36.790554 69.124219 -0.000014 54.322035 0.000016 0.000000 0.000000 0.000000 
0.307072 20.683384 7.259285 0.000000 0.000000 0.000000 0.340896 0.114235 0.908130 -90.596394 -11.675511 16.836835 90.364496 -0.908558 -0.231569 2.864034 -4.915615 -11.491059 -0.294185 -0.000008 0.000001 0.000000 0.000000 0.000000 0.340896 0.114235 0.908130 -92.002252 13.399482 -12.827765 92.742528 2.340570 -1.866388 3.329438 -2.557233 12.763718 -0.516604 -0.014171 1.015456 0.000000 0.000000 0.000000 0.340896 0.114235 0.908130 11.068532 0.112931 -1.537276 1.150175 0.241930 -0.514970 0.000000 0.000000 0.000000 0.000000 0.000000 0.000000 0.790869 0.295513 -0.461894 0.425490 -1.256187 0.167569 -14.339094 -4.783130 -4.404731 0.000000 0.000000 0.000000 0.790869 0.295513 -0.461894 2.644604 -11.707456 -0.109103 0.000000 0.000000 0.000000 -5.808111 -19.746082 -68.588999 0.000014 -59.897310 0.000009 0.000000 0.000000 0.000000 0.790869 0.295513 -0.461894 3.163800 -6.760646 5.176121 0.000000 0.000000 0.000000 -10.632071 36.518546 71.973132 -0.000006 54.067067 0.000022 0.000000 0.000000 0.000000 
0.307706 20.715012 7.285040 0.000000 0.000000 0.000000 0.384160 0.130156 0.910767 -91.059624 -11.672644 16.564834 90.671984 -0.854142 0.076503 3.022701 -4.423728 -11.798388 -0.469553 -0.000007 0.000002 0.000000 0.000000 0.000000 0.384160 0.130156 0.910767 -92.274968 13.237596 -12.222899 92.840357 2.294664 -2.430895 3.870494 -3.249757 12.997062 -0.655593 -0.026847 1.249153 0.000000 0.000000 0.000000 0.384160 0.130156 0.910767 11.434623 0.115450 -1.538452 1.819988 0.261522 -0.576247 0.000000 0.000000 0.000000 0.000000 0.000000 0.000000 1.350173 0.323237 -0.552270 1.022754 -1.245122 0.066546 -15.913219 -4.911711 -4.075077 0.000000 0.000000 0.000000 1.350173 0.323237 -0.552270 3.059792 -10.315396 2.847936 0.000000 0.000000 0.000000 -8.967113 -19.707567 -72.794175 0.000039 -59.348361 0.000035 0.000000 0.000000 0.000000 1.350173 0.323237 -0.552270 3.090344 -7.641481 3.832623 0.000000 0.000000 0.000000 -13.143304 36.248292 74.849980 0.000030 53.791059 -0.000039 0.000000 0.000000 0.000000 
0.319816 20.742413 7.303266 0.000000 0.000000 0.000000 0.491324 0.147847 0.911523 -91.433946 -11.574870 16.351102 90.918349 -0.896927 0.333631 2.880086 -3.972553 -12.035686 -0.769276 0.000003 0.000001 0.000000 0.000000 0.000000 0.491324 0.147847 0.911523 -92.287788 13.149661 -11.547032 92.637125 1.952238 -3.030198 3.968176 -3.891011 13.471133 -0.748851 -0.013296 0.983653 0.000000 0.000000 0.000000 0.491324 0.147847 0.911523 11.842082 0.128174 -1.537701 2.547180 0.286203 -0.639089 0.000000 0.000000 0.000000 0.000000 0.000000 0.000000 1.972554 0.355291 -0.653412 1.621076 -1.236237 -0.013578 -17.236510 -5.052842 -3.812320 0.000000 0.000000 0.000000 1.972554 0.355291 -0.653412 3.334358 -8.932679 5.680505 0.000000 0.000000 0.000000 -11.868980 -19.507963 -76.691270 0.000048 -58.875889 0.000043 0.000000 0.000000 0.000000 1.972554 0.355291 -0.653412 2.980579 -8.486963 2.497479 0.000000 0.000000 0.000000 -15.704379 35.962780 77.715286 0.000020 53.401472 -0.000022 0.000000 0.000000 0.000000 
0.347563 20.745617 7.307185 0.000000 0.000000 0.000000 0.680516 0.165056 0.915825 -91.679211 -11.357453 16.274203 91.077683 -1.253616 0.485512 2.258072 -3.587001 -12.099448 -1.219088 0.000006 -0.000002 0.000000 0.000000 0.000000 0.680516 0.165056 0.915825 -92.195041 13.236543 -10.825306 92.078491 1.450540 -3.591998 3.808238 -4.352588 14.080489 -1.693732 0.000002 0.000003 0.000000 0.000000 0.000000 0.680516 0.165056 0.915825 12.254626 0.152720 -1.537955 3.280974 0.313707 -0.702276 0.000000 0.000000 0.000000 0.000000 0.000000 0.000000 2.602935 0.388013 -0.756591 2.163697 -1.230596 -0.061493 -18.231655 -5.225902 -3.664096 0.000000 0.000000 0.000000 2.602935 0.388013 -0.756591 3.481070 -7.641903 8.182022 0.000000 0.000000 0.000000 -14.371744 -18.912789 -80.164824 -0.000006 -58.517441 -0.000015 0.000000 0.000000 0.000000 2.602935 0.388013 -0.756591 2.842318 -9.254246 1.219966 0.000000 0.000000 0.000000 -18.145043 35.580074 80.488165 0.000004 53.022301 -0.000015 0.000000 0.000000 0.000000 
0.388199 20.710136 7.292729 0.000000 0.000000 0.000000 1.051235 0.189609 0.930898 -91.908419 -11.012166 16.298887 91.078879 -1.914778 0.542505 1.324193 -3.241134 -11.967022 -1.764971 -0.000004 -0.000001 0.000000 0.000000 0.000000 1.051235 0.189609 0.930898 -92.425546 13.402874 -10.160490 91.877191 1.063807 -4.121168 2.842840 -5.105641 14.726151 -3.677512 0.000017 0.000004 0.000000 0.000000 0.000000 1.051235 0.189609 0.930898 12.636434 0.188240 -1.539132 3.972937 0.336889 -0.763607 0.000000 0.000000 0.000000 0.000000 0.000000 0.000000 3.188185 0.412849 -0.851425 2.561634 -1.229456 -0.077119 -18.843985 -5.441910 -3.645336 0.000000 0.000000 0.000000 3.188185 0.412849 -0.851425 3.537997 -6.589562 10.174467 0.000000 0.000000 0.000000 -16.129425 -17.929211 -82.956315 -0.000016 -58.642734 -0.000002 0.000000 0.000000 0.000000 3.188185 0.412849 -0.851425 2.686034 -9.915123 0.037853 0.000000 0.000000 0.000000 -20.014607 35.025989 82.852660 0.000006 53.126198 -0.000015 0.000000 0.000000 0.000000 
